HIERARCHY
ROOT Hips
{
  OFFSET 1.44925e-005 102.336 -0.101585
  CHANNELS 6 Xposition Yposition Zposition Zrotation Xrotation Yrotation
  JOINT RightUpLeg
  {
    OFFSET -8.9458 -8.66707 0.101652
    CHANNELS 3 Zrotation Xrotation Yrotation
    JOINT RightLeg
    {
      OFFSET 0 -44.4227 1.3727
      CHANNELS 3 Zrotation Xrotation Yrotation
      JOINT RightFoot
      {
        OFFSET 0.253549 -42.0924 -1.46059
        CHANNELS 3 Zrotation Xrotation Yrotation
        JOINT RightToes
        {
          OFFSET 0.04 -4.41509 8.4991
          CHANNELS 3 Zrotation Xrotation Yrotation
          End Site
          {
            OFFSET -0.08 -0.137448 9.77979
          }
        }
      }
    }
  }
  JOINT Spine
  {
    OFFSET 0 11.8905 0
    CHANNELS 3 Zrotation Xrotation Yrotation
    JOINT Spine1
    {
      OFFSET 0 25.6574 0.127663
      CHANNELS 3 Zrotation Xrotation Yrotation
      JOINT HEad
      {
        OFFSET 0 8.73416 0.011341
        CHANNELS 3 Zrotation Xrotation Yrotation
        End Site
        {
          OFFSET -0.29 12.7742 2.51395
        }
      }
      JOINT LeftShoulder1
      {
        OFFSET 8.99 -0.362252 -0.22
        CHANNELS 3 Zrotation Xrotation Yrotation
        JOINT LeftArm
        {
          OFFSET 10.2827 -0.00337999 0.322123
          CHANNELS 3 Zrotation Xrotation Yrotation
          JOINT LeftForeArm
          {
            OFFSET 26.2597 0.099144 -1.42434
            CHANNELS 3 Zrotation Xrotation Yrotation
            JOINT LeftHand
            {
              OFFSET 22.0902 0.085362 1.02216
              CHANNELS 3 Zrotation Xrotation Yrotation
              End Site
              {
                OFFSET 13.419 -0.6 1.50291
              }
            }
          }
        }
      }
      JOINT RightShoulder
      {
        OFFSET -8.99 -0.362252 -0.22
        CHANNELS 3 Zrotation Xrotation Yrotation
        JOINT RightArm
        {
          OFFSET -10.2827 -0.00338 0.322123
          CHANNELS 3 Zrotation Xrotation Yrotation
          JOINT RightForeArm
          {
            OFFSET -26.364 0.099144 -1.42434
            CHANNELS 3 Zrotation Xrotation Yrotation
            JOINT RightHand
            {
              OFFSET -22.0324 0.085362 1.02216
              CHANNELS 3 Zrotation Xrotation Yrotation
              End Site
              {
                OFFSET -13.3284 -0.6 1.50291
              }
            }
          }
        }
      }
    }
  }
  JOINT LeftUpLeg
  {
    OFFSET 8.9458 -8.66707 0.101652
    CHANNELS 3 Zrotation Xrotation Yrotation
    JOINT LeftLeg
    {
      OFFSET 0 -44.4227 1.3727
      CHANNELS 3 Zrotation Xrotation Yrotation
      JOINT LeftFoot
      {
        OFFSET -0.253549 -42.0924 -1.46059
        CHANNELS 3 Zrotation Xrotation Yrotation
        JOINT LeftToes
        {
          OFFSET -0.04 -4.41509 8.4991
          CHANNELS 3 Zrotation Xrotation Yrotation
          End Site
          {
            OFFSET 0.08 -0.047448 9.77979
          }
        }
      }
    }
  }
}
MOTION
Frames:	18
Frame Time:	0.0333333
1.02615 101.976 111.925 1.27823 10.2296 179.201 -1.91726 3.74035 -31.6244 -0.912076 33.8054 -12.2645 7.45978 -25.4268 0.909961 0.0462048 0.000530889 0.662642 18.6317 10.8514 2.34733 -16.62 3.85633 7.6952 11.3745 -0.00420407 -20.2657 -16.7859 1.82996 -4.2741 -65.1357 -40.3731 -68.1038 -11.7278 27.9185 -110.343 20.615 6.19541 -15.898 1.26945 0.947843 4.1175 49.619 -1.98948 91.0474 -43.567 23.767 96.0686 -39.0695 6.92555 3.26171 13.9667 -17.3354 7.25932 0.535133 37.9483 3.40282 -5.13492 -2.62723 0.225581 -1.36808e-009 8.75245e-006 -1.46835e-008 
0.186479 102.446 111.909 1.34047 9.4358 179.275 -1.90116 3.50423 -31.093 -0.903982 32.1089 -12.429 7.7002 -24.1714 0.866889 0.0462048 0.000530889 0.662642 18.4588 9.62878 2.43986 -16.2365 4.13789 7.58592 10.7417 -0.579438 -19.142 -17.9218 1.85831 -4.05726 -62.4919 -39.3142 -63.5865 -12.7558 28.0062 -108.541 18.626 6.53835 -16.1324 3.16632 1.13299 4.62563 47.6201 -1.02439 89.1072 -42.5702 24.8327 94.5651 -38.44 6.85945 3.61199 14.9334 -15.4097 5.85204 0.555754 38.2002 3.78917 -4.60177 -4.48121 0.138598 -1.36808e-009 8.75245e-006 -1.46835e-008 
-0.739215 102.834 111.875 1.41093 8.72253 179.458 -2.05905 3.30888 -30.961 -0.893044 30.679 -12.4411 8.04661 -23.0396 0.842128 0.0462048 0.000530889 0.662642 17.9754 8.59174 2.46478 -15.5581 4.32445 7.32084 10.0259 -1.29838 -18.0812 -18.7889 1.87066 -3.86651 -59.3853 -37.2011 -57.5475 -14.1286 27.9675 -105.818 16.3088 6.97433 -16.2196 5.65946 1.39549 5.23658 45.2914 1.36998 85.2518 -41.6187 25.8531 93.0407 -38.1236 6.81698 3.82107 16.0996 -13.2182 5.37137 0.547132 36.9334 3.78358 -4.27923 -5.77944 0.0907419 -1.36808e-009 8.75245e-006 -1.46835e-008 
-1.77051 103.217 111.803 1.48854 8.16514 179.519 -2.33821 3.31896 -30.8633 -0.781707 29.2347 -12.5436 8.09822 -21.8397 0.76765 0.0462048 0.000530889 0.662642 17.3358 7.8408 2.56209 -14.853 4.47207 7.12488 9.2543 -2.07927 -17.2972 -19.5509 1.88431 -3.71891 -56.3943 -33.5329 -50.7095 -16.5699 27.8451 -101.677 14.4788 7.27505 -16.6426 8.72967 1.74399 5.90418 42.9161 2.9962 79.8266 -40.6947 26.7974 91.5353 -37.6772 6.83968 3.87201 17.2898 -10.6594 5.8926 0.548403 34.3458 4.36417 -3.22266 -6.85124 0.0484067 -1.36808e-009 8.75245e-006 -1.46835e-008 
-2.96962 103.543 111.67 1.66275 7.75854 179.391 -2.63252 3.44218 -29.9002 -0.420188 27.9125 -13.296 8.17012 -20.6191 0.692486 0.0462048 0.000530889 0.662642 16.8609 7.2522 2.75345 -14.2657 4.74388 7.07674 8.49119 -2.92458 -16.803 -20.7291 1.9292 -3.59164 -53.9156 -28.7146 -44.2127 -19.9161 27.2594 -96.0807 12.5989 7.63346 -16.7024 12.4417 2.18841 6.56079 40.7013 4.88456 72.9767 -39.4637 27.5036 90.138 -36.5274 7.05371 3.52116 18.4844 -7.92796 6.85389 0.579919 31.0493 5.42918 -2.75994 -7.08255 0.0402988 -1.36808e-009 8.75245e-006 -1.46835e-008 
-4.37799 103.698 111.469 1.9861 7.44959 179.399 -2.96541 3.50672 -28.807 -0.161641 27.1006 -14.0387 8.91197 -19.646 0.706352 0.0462048 0.000530889 0.662642 16.6251 6.60944 2.87897 -13.6482 5.30413 7.00267 7.81442 -4.05854 -16.4274 -22.2967 1.99458 -3.45478 -52.0395 -23.4548 -38.5563 -23.7088 25.9657 -89.7491 9.94426 8.24404 -15.529 16.8323 2.72173 7.10643 38.7669 6.5127 64.6335 -38.5979 27.6186 89.6326 -35.2342 7.34429 2.93688 19.8435 -5.33162 7.72654 0.567167 27.5363 5.17067 -5.93655 -6.12033 0.109159 -1.36808e-009 8.75245e-006 -1.46835e-008 
-6.00774 103.636 111.211 2.3624 7.18945 179.876 -3.49281 3.36537 -28.5156 -0.203635 27.1062 -14.4913 10.0604 -19.0242 0.77795 0.0462048 0.000530889 0.662642 16.2184 5.86696 2.84869 -12.4601 6.11051 6.68667 7.10912 -5.56608 -16.1307 -23.7176 2.03585 -3.28014 -51.1048 -17.6752 -33.6078 -28.7797 23.837 -82.8164 7.49531 8.79597 -13.8172 21.3697 3.26008 7.4287 37.4218 7.523 54.9353 -38.709 26.9628 90.5843 -34.4088 7.44581 2.81595 21.1232 -3.18174 8.70608 0.461576 24.1436 2.46955 -12.5041 -4.91038 0.314901 -1.36808e-009 8.75245e-006 -1.46835e-008 
-7.83557 103.477 110.932 2.49579 6.89393 -179.274 -4.4382 2.95043 -28.8964 -0.58391 27.7142 -14.7373 10.935 -18.5105 0.819802 0.0462048 0.000530889 0.662642 15.1679 5.22981 2.73076 -10.6487 6.83892 6.102 6.19981 -7.14808 -15.9569 -24.7186 2.04098 -3.08773 -51.58 -11.3708 -29.1072 -35.3743 20.1421 -75.2757 6.83407 8.99277 -12.1799 25.2506 3.69361 7.52319 36.7941 7.73979 44.4032 -38.6455 25.8034 92.1439 -33.3037 7.42558 3.18233 21.4317 -2.00226 9.97634 0.331049 21.7614 -1.15116 -17.6219 -4.896 0.439368 -1.36808e-009 8.75245e-006 -1.46835e-008 
-9.76242 103.354 110.715 2.10475 6.45579 -178.437 -6.05567 2.16779 -28.6268 -1.00477 28.6823 -15.1769 12.2355 -17.8297 0.87533 0.0462048 0.000530889 0.662642 13.2651 4.9956 2.62264 -8.81457 7.17247 5.3819 5.13336 -8.60289 -15.7563 -25.5831 2.07244 -3.01446 -53.0938 -5.57962 -24.9962 -41.0245 14.9717 -68.5802 7.37187 8.93063 -11.8183 28.1259 3.98157 7.46686 36.5471 7.35534 33.94 -36.9384 24.7748 93.0516 -31.1676 7.60161 3.15598 20.2412 -2.30924 10.6924 0.245435 21.6949 -2.93936 -17.9885 -6.58405 0.201445 -1.36808e-009 8.75245e-006 -1.46835e-008 
-11.6476 103.144 110.663 1.33558 5.91896 -177.868 -8.53739 0.536867 -27.0663 -1.03395 31.0861 -16.2101 15.2558 -16.8317 1.01905 0.0462048 0.000530889 0.662642 10.6984 5.28231 2.52662 -7.19174 7.30811 4.63653 4.19441 -10.3384 -15.2377 -26.4882 2.19312 -3.20917 -54.2881 -1.02669 -21.7847 -43.3737 10.1995 -63.8307 6.58072 8.86423 -15.5702 30.2584 4.18105 7.38275 36.1734 6.67533 24.5528 -33.8372 24.2245 93.0345 -28.8443 7.97298 2.40219 18.2486 -3.94161 10.5814 0.243407 24.018 -2.55752 -15.878 -9.03101 -0.154499 -1.36808e-009 8.75245e-006 -1.46835e-008 
-13.3457 102.692 110.802 0.561782 5.46639 -177.729 -11.8225 -2.50208 -25.8178 -1.11378 36.1813 -16.6662 18.9043 -14.9073 1.00364 0.0462048 0.000530889 0.662642 7.88611 6.02189 2.43566 -5.62233 7.66693 3.94475 3.62015 -12.8089 -14.2935 -27.0239 2.35675 -3.5977 -54.1237 3.01284 -20.2198 -44.9356 5.82682 -60.2133 5.27848 9.01489 -17.6648 32.0119 4.38886 7.4289 35.5208 5.87831 16.9185 -30.5589 23.9688 92.6293 -27.5154 8.24241 1.66049 16.5693 -6.08874 10.5065 0.27677 27.554 -1.99765 -14.8526 -11.119 -0.40765 -1.36808e-009 8.75245e-006 -1.46835e-008 
-14.8953 102.129 111.061 -0.022897 5.08225 -178.344 -15.4791 -6.85382 -24.7089 -1.16611 42.9382 -15.9374 20.1881 -11.5581 0.513981 0.0462048 0.000530889 0.662642 5.69334 6.91475 2.41042 -4.43811 8.23439 3.53548 3.2926 -15.623 -13.0964 -26.8223 2.45592 -3.93928 -52.7281 7.45773 -20.2591 -47.9036 1.24466 -57.6883 4.20807 9.25233 -17.0536 33.3469 4.62933 7.66563 34.9367 5.09471 11.05 -27.6387 23.7349 92.3632 -26.9828 8.34983 1.33843 15.4228 -8.01099 11.009 0.291428 31.0518 -1.90489 -14.9688 -12.7448 -0.616436 -1.36808e-009 8.75245e-006 -1.46835e-008 
-16.2897 101.622 111.305 -0.291004 4.86 -179.609 -18.5697 -11.3135 -23.0327 -1.13614 48.8165 -12.6493 18.2235 -8.44129 -0.0484908 0.0462048 0.000530889 0.662642 4.48594 7.89675 2.41536 -4.00317 8.605 3.39422 2.86204 -17.7631 -11.8443 -26.1943 2.46134 -4.09455 -50.9276 11.6811 -20.978 -51.0572 -2.29881 -56.5957 3.13908 9.46439 -16.9029 34.0982 4.84243 7.9827 34.7093 4.49656 6.56879 -24.9961 23.4328 92.4111 -26.6065 8.44029 1.03899 14.6255 -9.3655 11.8043 0.321286 34.074 -1.50915 -14.5728 -14.3779 -0.80111 -1.36808e-009 8.75245e-006 -1.46835e-008 
-17.4709 101.295 111.393 -0.0384079 4.76535 179.262 -20.3605 -14.3746 -20.9654 -0.974598 51.7273 -7.23737 15.1838 -7.81022 -0.1582 0.0462048 0.000530889 0.662642 4.09686 8.61116 2.27664 -3.53112 8.7171 3.15377 2.14688 -18.6306 -10.6358 -25.7742 2.43846 -4.1193 -49.3577 14.7789 -21.5678 -51.9538 -3.61754 -56.185 2.84937 9.52447 -16.681 34.4497 4.97694 8.21131 34.5935 4.17053 3.24701 -22.7684 23.1141 92.7267 -26.5201 8.54527 0.595223 14.2461 -10.2429 12.092 0.370571 36.365 -0.500281 -13.7709 -15.8831 -0.932163 -1.36808e-009 8.75245e-006 -1.46835e-008 
-18.3906 101.147 111.31 0.66771 4.73365 178.729 -21.1589 -15.4064 -19.1511 -0.716686 51.2381 -3.10251 13.4834 -9.1556 -0.00149943 0.0462048 0.000530889 0.662642 4.25017 8.92987 1.95393 -2.68107 8.72527 2.67824 1.34944 -18.4548 -9.58506 -25.8156 2.42486 -4.06762 -48.1065 16.881 -22.0071 -51.0212 -3.39215 -55.9268 3.09842 9.48358 -16.2987 34.8129 5.05067 8.28494 34.1579 3.98905 1.02712 -21.3404 22.8236 93.2469 -26.9652 8.57413 0.361532 14.3544 -10.7865 11.6774 0.418288 37.863 0.494034 -13.5981 -16.9036 -1.03888 -1.36808e-009 8.75245e-006 -1.46835e-008 
-18.9472 101.056 111.118 1.47847 4.7254 178.553 -21.562 -14.9927 -17.6836 -0.604232 48.1488 -2.69221 13.4155 -9.85873 0.0748567 0.0462048 0.000530889 0.662642 4.42798 9.04689 1.6505 -1.78042 8.62023 2.17938 0.852674 -17.7781 -8.82833 -26.0931 2.39526 -3.91365 -47.1481 18.4531 -22.5774 -50.6699 -3.23483 -55.8708 3.23478 9.46321 -16.0241 35.3669 5.11013 8.26749 33.3902 3.69953 -0.313364 -20.8147 22.5378 93.9518 -27.5047 8.51523 0.493272 14.8568 -11.1006 11.2457 0.442364 38.8659 0.909107 -13.8541 -17.5703 -1.13961 -1.36808e-009 8.75245e-006 -1.46835e-008 
-19.1608 100.986 110.862 2.09101 4.5834 178.308 -21.8625 -14.1402 -16.1604 -0.66282 43.4945 -4.65208 13.2452 -8.91943 -0.0312864 0.0462048 0.000530889 0.662642 4.55371 8.96738 1.49967 -1.342 8.37031 1.91579 0.81977 -17.0008 -8.35367 -26.2644 2.34412 -3.7186 -46.6994 19.3171 -23.1926 -50.8353 -3.2552 -55.9288 3.22391 9.46928 -15.8237 35.9549 5.17324 8.24877 32.7204 3.14231 -1.09261 -20.8723 22.2433 94.7488 -27.6053 8.46381 0.689695 15.4389 -11.3072 11.2854 0.451931 39.5274 1.01782 -13.7998 -18.0996 -1.19804 -1.36808e-009 8.75245e-006 -1.46835e-008 
-19.1418 100.936 110.573 2.53397 4.25207 177.988 -22.0845 -13.2463 -14.4482 -0.696935 38.0708 -5.9681 12.0433 -7.3166 -0.204009 0.0462048 0.000530889 0.662642 5.02429 8.62755 1.39746 -1.45028 8.11205 1.87775 1.01608 -16.4204 -8.01774 -26.1724 2.30885 -3.62977 -46.8282 19.1851 -23.6617 -49.6945 -2.4874 -55.9102 3.34634 9.45767 -15.3076 36.3486 5.22216 8.25175 32.5456 2.37006 -1.36235 -21.2056 21.9758 95.4712 -27.4884 8.46417 0.715632 15.9856 -11.5546 11.4824 0.462447 39.9655 1.20086 -13.6606 -18.4804 -1.23023 -1.36808e-009 8.75245e-006 -1.46835e-008 
